# Blender 3.6.9
# www.blender.org
mtllib 120_collider.mtl
o 立方体
v -0.492205 0.009993 0.381196
v -0.389711 2.563858 0.299140
v -0.492205 0.009993 -0.381196
v -0.389711 2.563858 -0.299141
v 0.460088 0.009993 0.381196
v 0.357594 2.563858 0.299140
v 0.460088 0.009993 -0.381196
v 0.357594 2.563858 -0.299141
v -0.860640 1.455480 -0.612538
v -0.860640 1.455480 0.612538
v 0.881099 1.455480 0.612538
v 0.881099 1.455480 -0.612538
vn -0.9204 0.3910 -0.0000
vn -0.0000 0.2721 -0.9623
vn 0.9042 0.4271 -0.0000
vn -0.0000 0.2721 0.9623
vn -0.0000 -1.0000 -0.0000
vn -0.0000 1.0000 -0.0000
vn -0.0000 -0.1580 0.9874
vn 0.9601 -0.2796 -0.0000
vn -0.0000 -0.1580 -0.9874
vn -0.9690 -0.2470 -0.0000
vt 0.516500 0.000000
vt 0.625000 0.000000
vt 0.625000 0.250000
vt 0.516500 0.250000
vt 0.625000 0.500000
vt 0.516500 0.500000
vt 0.625000 0.750000
vt 0.516500 0.750000
vt 0.625000 1.000000
vt 0.516500 1.000000
vt 0.125000 0.500000
vt 0.375000 0.500000
vt 0.375000 0.750000
vt 0.125000 0.750000
vt 0.875000 0.500000
vt 0.875000 0.750000
vt 0.375000 1.000000
vt 0.375000 0.250000
vt 0.375000 0.000000
s 0
f 10/1/1 2/2/1 4/3/1 9/4/1
f 9/4/2 4/3/2 8/5/2 12/6/2
f 12/6/3 8/5/3 6/7/3 11/8/3
f 11/8/4 6/7/4 2/9/4 10/10/4
f 3/11/5 7/12/5 5/13/5 1/14/5
f 8/5/6 4/15/6 2/16/6 6/7/6
f 5/13/7 11/8/7 10/10/7 1/17/7
f 7/12/8 12/6/8 11/8/8 5/13/8
f 3/18/9 9/4/9 12/6/9 7/12/9
f 1/19/10 10/1/10 9/4/10 3/18/10
