# Blender 3.6.15
# www.blender.org
mtllib city_collider.mtl
o 立方体
v 8.711386 -2.568396 37.782127
v 8.711386 58.814384 37.782127
v 8.711386 -2.568396 7.548194
v 8.711386 58.814384 7.548194
v 38.945312 -2.568396 37.782127
v 38.945312 58.814384 37.782127
v 38.945312 -2.568396 7.548194
v 38.945312 58.814384 7.548194
v -24.374702 42.891434 4.688717
v -24.374702 -6.410580 4.688717
v -24.374702 42.891434 39.342819
v -24.374702 -6.410580 39.342819
v -59.028801 42.891434 4.688717
v -59.028801 -6.410580 4.688717
v -59.028801 42.891434 39.342819
v -59.028801 -6.410580 39.342819
v -53.795231 -3.362853 -0.624571
v -53.795231 21.677330 -0.624571
v -53.795231 -3.362853 -47.545403
v -53.795231 21.677330 -47.545403
v -32.490467 -3.362853 -0.624571
v -32.490467 21.677330 -0.624571
v -32.490467 -3.362853 -47.545403
v -32.490467 21.677330 -47.545403
v -32.244457 -7.290324 -16.271135
v -32.244457 24.276485 -16.271135
v -32.244457 -7.290324 -38.107796
v -32.244457 24.276485 -38.107796
v -16.961617 -7.290324 -16.271135
v -16.961617 24.276485 -16.271135
v -16.961617 -7.290324 -38.107796
v -16.961617 24.276485 -38.107796
v -33.050991 -4.364597 -39.564205
v -33.050991 7.935289 -39.564205
v -33.050991 -4.364597 -48.293400
v -33.050991 7.935289 -48.293400
v -14.509367 -4.364597 -39.564205
v -14.509367 7.935289 -39.564205
v -14.509367 -4.364597 -48.293400
v -14.509367 7.935289 -48.293400
v -31.501072 -1.000000 4.544288
v -31.501072 3.786137 4.544288
v -31.501072 -1.000000 2.544287
v -31.501072 3.786137 2.544287
v -10.096903 -1.000000 4.544288
v -10.096903 3.786137 4.544288
v -10.096903 -1.000000 2.544287
v -10.096903 3.786137 2.544287
v -33.630981 -1.000000 2.586789
v -33.630981 -1.000000 4.586789
v -33.630981 3.786137 4.586789
v -33.630981 3.786137 2.586789
v -31.854488 3.786137 -15.166722
v -31.854488 -1.000000 -15.166722
v -33.984398 3.786137 -15.124221
v -33.984398 -1.000000 -15.124221
v -8.270952 3.786137 2.544287
v -8.270952 -1.000000 2.544287
v -8.270952 -1.000000 4.544288
v -8.270952 3.786137 4.544288
v -10.096903 3.786137 -12.801522
v -10.096903 -1.000000 -12.801522
v -8.270952 3.786137 -12.801522
v -8.270952 -1.000000 -12.801522
v -21.970121 -6.711298 31.630646
v -21.970121 30.043213 31.630646
v -21.970121 -6.711298 3.988588
v -21.970121 30.043213 3.988588
v -8.547520 -6.711298 31.630646
v -8.547520 30.043213 31.630646
v -8.547520 -6.711298 3.988588
v -8.547520 30.043213 3.988588
v -22.935974 -0.713816 40.354691
v -22.935974 2.602965 40.354691
v -22.935974 -0.713816 39.390026
v -22.935974 2.602965 39.390026
v -4.766181 -0.713816 40.354691
v -4.766181 2.602965 40.354691
v -4.766181 -0.713816 39.390026
v -4.766181 2.602965 39.390026
v -24.398882 -0.713816 39.390026
v -24.398882 -0.713816 40.354691
v -24.398882 2.602965 40.354691
v -24.398882 2.602965 39.390026
v -22.935974 2.602965 32.674454
v -22.935974 -0.713816 32.674454
v -24.398882 2.602965 32.674454
v -24.398882 -0.713816 32.674454
v -21.123144 2.602965 30.302212
v -21.123144 -0.713816 30.302212
v -22.586052 2.602965 30.302212
v -22.586052 -0.713816 30.302212
v -7.925624 -0.510159 -8.956910
v -7.925624 4.248696 1.168969
v -7.925624 -0.510159 -10.615470
v -7.925624 4.248696 -10.615470
v -6.267064 -0.510159 1.168969
v -6.267064 4.248696 1.168969
v -6.267064 -0.510159 -10.615470
v -6.267064 4.248696 -10.615470
v -10.978923 7.279375 4.222267
v -10.978923 7.279375 -13.668769
v -3.213765 7.279375 -13.668769
v -3.213765 7.279375 4.222267
v -9.263803 11.057415 2.507147
v -9.263803 11.057415 -11.953649
v -4.928885 11.057415 -11.953649
v -4.928885 11.057415 2.507147
v -7.925624 -0.510159 -22.588823
v -7.925624 4.248696 -22.588823
v -7.925624 -0.510159 -31.950279
v -7.925624 4.248696 -31.950279
v -6.267064 -0.510159 -22.588823
v -6.267064 4.248696 -22.588823
v -6.267064 -0.510159 -31.950279
v -6.267064 4.248696 -31.950279
v -10.978923 7.279375 -19.535526
v -10.978923 7.279375 -35.003578
v -3.213765 7.279375 -35.003578
v -3.213765 7.279375 -19.535526
v -9.263803 11.057415 -21.250645
v -9.263803 11.057415 -33.288460
v -4.928885 11.057415 -33.288460
v -4.928885 11.057415 -21.250645
v -12.489366 -1.873580 -39.532883
v -12.489366 2.885275 -39.532883
v -12.489366 -1.873580 -41.191444
v -12.489366 2.885275 -41.191444
v -10.830806 -1.873580 -39.532883
v -10.830806 2.885275 -39.532883
v -10.830806 -1.873580 -41.191444
v -10.830806 2.885275 -41.191444
v -15.542665 5.915954 -36.479584
v -15.542665 5.915954 -44.244743
v -7.777507 5.915954 -44.244743
v -7.777507 5.915954 -36.479584
v -13.827544 9.693994 -38.194706
v -13.827544 9.693994 -42.529621
v -9.492627 9.693994 -42.529621
v -9.492627 9.693994 -38.194706
v -57.568893 -0.510159 -52.148972
v -57.568893 4.248696 -52.148972
v -57.568893 -0.510159 -53.807533
v -57.568893 4.248696 -53.807533
v -36.244232 -0.510159 -52.148972
v -36.244232 4.248696 -52.148972
v -36.244232 -0.510159 -53.807533
v -36.244232 4.248696 -53.807533
v -60.622192 7.279375 -49.095673
v -60.622192 7.279375 -56.860832
v -33.190933 7.279375 -56.860832
v -33.190933 7.279375 -49.095673
v -58.907070 11.057415 -50.810795
v -58.907070 11.057415 -55.145710
v -34.906055 11.057415 -55.145710
v -34.906055 11.057415 -50.810795
v -59.202251 -0.964469 -3.052696
v -59.202251 3.794385 -3.052696
v -59.202251 -0.964469 -44.899036
v -59.202251 3.794385 -44.899036
v -57.543690 -0.964469 -3.052696
v -57.543690 3.794385 -3.052696
v -57.543690 -0.964469 -44.899036
v -57.543690 3.794385 -44.899036
v -62.255550 6.825065 0.000603
v -62.255550 6.825065 -47.952332
v -54.490391 6.825065 -47.952332
v -54.490391 6.825065 0.000603
v -60.540428 10.603105 -1.714520
v -60.540428 10.603105 -46.237213
v -56.205513 10.603105 -46.237213
v -56.205513 10.603105 -1.714520
vn -1.0000 -0.0000 -0.0000
vn -0.0000 -0.0000 -1.0000
vn 1.0000 -0.0000 -0.0000
vn -0.0000 -0.0000 1.0000
vn -0.0000 -1.0000 -0.0000
vn -0.0000 1.0000 -0.0000
vn 0.0200 -0.0000 0.9998
vn -0.0200 -0.0000 -0.9998
vn 0.9998 -0.0000 -0.0200
vn -0.9998 -0.0000 0.0200
vn 0.7946 -0.0000 0.6072
vn -0.7946 -0.0000 -0.6072
vn -0.9021 -0.3144 0.2955
vn -0.0000 -0.7097 -0.7045
vn 0.9106 0.4134 -0.0000
vn 0.7045 -0.7097 -0.0000
vn -0.7045 -0.7097 -0.0000
vn -0.0000 -0.7097 0.7045
vn -0.9106 0.4134 -0.0000
vn -0.0000 0.4134 0.9106
vn -0.0000 0.4134 -0.9106
vt 0.375000 0.000000
vt 0.625000 0.000000
vt 0.625000 0.250000
vt 0.375000 0.250000
vt 0.625000 0.500000
vt 0.375000 0.500000
vt 0.625000 0.750000
vt 0.375000 0.750000
vt 0.625000 1.000000
vt 0.375000 1.000000
vt 0.125000 0.500000
vt 0.125000 0.750000
vt 0.875000 0.500000
vt 0.875000 0.750000
s 0
f 1/1/1 2/2/1 4/3/1 3/4/1
f 3/4/2 4/3/2 8/5/2 7/6/2
f 7/6/3 8/5/3 6/7/3 5/8/3
f 5/8/4 6/7/4 2/9/4 1/10/4
f 3/11/5 7/6/5 5/8/5 1/12/5
f 8/5/6 4/13/6 2/14/6 6/7/6
f 9/1/1 10/2/1 12/3/1 11/4/1
f 11/4/2 12/3/2 16/5/2 15/6/2
f 15/6/3 16/5/3 14/7/3 13/8/3
f 13/8/4 14/7/4 10/9/4 9/10/4
f 11/11/5 15/6/5 13/8/5 9/12/5
f 16/5/6 12/13/6 10/14/6 14/7/6
f 17/1/1 18/2/1 20/3/1 19/4/1
f 19/4/2 20/3/2 24/5/2 23/6/2
f 23/6/3 24/5/3 22/7/3 21/8/3
f 21/8/4 22/7/4 18/9/4 17/10/4
f 19/11/5 23/6/5 21/8/5 17/12/5
f 24/5/6 20/13/6 18/14/6 22/7/6
f 25/1/1 26/2/1 28/3/1 27/4/1
f 27/4/2 28/3/2 32/5/2 31/6/2
f 31/6/3 32/5/3 30/7/3 29/8/3
f 29/8/4 30/7/4 26/9/4 25/10/4
f 27/11/5 31/6/5 29/8/5 25/12/5
f 32/5/6 28/13/6 26/14/6 30/7/6
f 33/1/1 34/2/1 36/3/1 35/4/1
f 35/4/2 36/3/2 40/5/2 39/6/2
f 39/6/3 40/5/3 38/7/3 37/8/3
f 37/8/4 38/7/4 34/9/4 33/10/4
f 35/11/5 39/6/5 37/8/5 33/12/5
f 40/5/6 36/13/6 34/14/6 38/7/6
f 43/11/5 49/11/5 56/11/5 54/11/5
f 43/4/2 44/3/2 48/5/2 47/6/2
f 48/5/6 46/7/6 60/7/6 57/5/6
f 45/8/4 46/7/4 42/9/4 41/10/4
f 43/11/5 47/6/5 45/8/5 41/12/5
f 48/5/6 44/13/6 42/14/6 46/7/6
f 50/1/1 51/2/1 52/3/1 49/4/1
f 41/10/7 42/9/7 51/9/7 50/10/7
f 42/14/6 44/13/6 52/13/6 51/14/6
f 43/11/5 41/12/5 50/12/5 49/11/5
f 53/3/8 54/4/8 56/4/8 55/3/8
f 44/3/9 43/4/9 54/4/9 53/3/9
f 52/13/6 44/13/6 53/13/6 55/13/6
f 49/4/10 52/3/10 55/3/10 56/4/10
f 58/6/3 57/5/3 60/7/3 59/8/3
f 58/6/5 47/6/5 62/6/5 64/6/5
f 46/7/4 45/8/4 59/8/4 60/7/4
f 45/8/5 47/6/5 58/6/5 59/8/5
f 62/6/2 61/5/2 63/5/2 64/6/2
f 47/6/1 48/5/1 61/5/1 62/6/1
f 57/5/3 58/6/3 64/6/3 63/5/3
f 48/5/6 57/5/6 63/5/6 61/5/6
f 65/1/1 66/2/1 68/3/1 67/4/1
f 67/4/2 68/3/2 72/5/2 71/6/2
f 71/6/3 72/5/3 70/7/3 69/8/3
f 69/8/4 70/7/4 66/9/4 65/10/4
f 67/11/5 71/6/5 69/8/5 65/12/5
f 72/5/6 68/13/6 66/14/6 70/7/6
f 75/11/5 73/12/5 82/12/5 81/11/5
f 75/4/2 76/3/2 80/5/2 79/6/2
f 79/6/3 80/5/3 78/7/3 77/8/3
f 77/8/4 78/7/4 74/9/4 73/10/4
f 75/11/5 79/6/5 77/8/5 73/12/5
f 80/5/6 76/13/6 74/14/6 78/7/6
f 82/1/1 83/2/1 84/3/1 81/4/1
f 84/13/6 76/13/6 85/13/6 87/13/6
f 73/10/4 74/9/4 83/9/4 82/10/4
f 74/14/6 76/13/6 84/13/6 83/14/6
f 86/11/5 88/11/5 92/11/5 90/11/5
f 76/3/3 75/4/3 86/4/3 85/3/3
f 75/11/5 81/11/5 88/11/5 86/11/5
f 81/4/1 84/3/1 87/3/1 88/4/1
f 89/3/2 90/4/2 92/4/2 91/3/2
f 85/3/11 86/4/11 90/4/11 89/3/11
f 87/13/6 85/13/6 89/13/6 91/13/6
f 88/4/12 87/3/12 91/3/12 92/4/12
f 93/1/1 94/2/1 96/3/1 95/4/1
f 95/4/2 96/3/2 100/5/2 99/6/2
f 99/6/3 100/5/3 98/7/3 97/8/3
f 97/8/13 98/7/13 94/9/13 93/10/13
f 95/11/5 99/6/5 97/8/5 93/12/5
f 100/5/14 96/3/14 102/3/14 103/5/14
f 104/7/15 103/5/15 107/5/15 108/7/15
f 98/7/16 100/5/16 103/5/16 104/7/16
f 96/3/17 94/2/17 101/2/17 102/3/17
f 94/9/18 98/7/18 104/7/18 101/9/18
f 107/5/6 106/13/6 105/14/6 108/7/6
f 102/3/19 101/2/19 105/2/19 106/3/19
f 101/9/20 104/7/20 108/7/20 105/9/20
f 103/5/21 102/3/21 106/3/21 107/5/21
f 109/1/1 110/2/1 112/3/1 111/4/1
f 111/4/2 112/3/2 116/5/2 115/6/2
f 115/6/3 116/5/3 114/7/3 113/8/3
f 113/8/4 114/7/4 110/9/4 109/10/4
f 111/11/5 115/6/5 113/8/5 109/12/5
f 116/5/14 112/3/14 118/3/14 119/5/14
f 120/7/15 119/5/15 123/5/15 124/7/15
f 114/7/16 116/5/16 119/5/16 120/7/16
f 112/3/17 110/2/17 117/2/17 118/3/17
f 110/9/18 114/7/18 120/7/18 117/9/18
f 123/5/6 122/13/6 121/14/6 124/7/6
f 118/3/19 117/2/19 121/2/19 122/3/19
f 117/9/20 120/7/20 124/7/20 121/9/20
f 119/5/21 118/3/21 122/3/21 123/5/21
f 125/1/1 126/2/1 128/3/1 127/4/1
f 127/4/2 128/3/2 132/5/2 131/6/2
f 131/6/3 132/5/3 130/7/3 129/8/3
f 129/8/4 130/7/4 126/9/4 125/10/4
f 127/11/5 131/6/5 129/8/5 125/12/5
f 132/5/14 128/3/14 134/3/14 135/5/14
f 136/7/15 135/5/15 139/5/15 140/7/15
f 130/7/16 132/5/16 135/5/16 136/7/16
f 128/3/17 126/2/17 133/2/17 134/3/17
f 126/9/18 130/7/18 136/7/18 133/9/18
f 139/5/6 138/13/6 137/14/6 140/7/6
f 134/3/19 133/2/19 137/2/19 138/3/19
f 133/9/20 136/7/20 140/7/20 137/9/20
f 135/5/21 134/3/21 138/3/21 139/5/21
f 141/1/1 142/2/1 144/3/1 143/4/1
f 143/4/2 144/3/2 148/5/2 147/6/2
f 147/6/3 148/5/3 146/7/3 145/8/3
f 145/8/4 146/7/4 142/9/4 141/10/4
f 143/11/5 147/6/5 145/8/5 141/12/5
f 148/5/14 144/3/14 150/3/14 151/5/14
f 152/7/15 151/5/15 155/5/15 156/7/15
f 146/7/16 148/5/16 151/5/16 152/7/16
f 144/3/17 142/2/17 149/2/17 150/3/17
f 142/9/18 146/7/18 152/7/18 149/9/18
f 155/5/6 154/13/6 153/14/6 156/7/6
f 150/3/19 149/2/19 153/2/19 154/3/19
f 149/9/20 152/7/20 156/7/20 153/9/20
f 151/5/21 150/3/21 154/3/21 155/5/21
f 157/1/1 158/2/1 160/3/1 159/4/1
f 159/4/2 160/3/2 164/5/2 163/6/2
f 163/6/3 164/5/3 162/7/3 161/8/3
f 161/8/4 162/7/4 158/9/4 157/10/4
f 159/11/5 163/6/5 161/8/5 157/12/5
f 164/5/14 160/3/14 166/3/14 167/5/14
f 168/7/15 167/5/15 171/5/15 172/7/15
f 162/7/16 164/5/16 167/5/16 168/7/16
f 160/3/17 158/2/17 165/2/17 166/3/17
f 158/9/18 162/7/18 168/7/18 165/9/18
f 171/5/6 170/13/6 169/14/6 172/7/6
f 166/3/19 165/2/19 169/2/19 170/3/19
f 165/9/20 168/7/20 172/7/20 169/9/20
f 167/5/21 166/3/21 170/3/21 171/5/21
