# Blender 3.6.15
# www.blender.org
mtllib gt86_collider.mtl
o 立方体
v 1.106366 0.340569 2.685907
v 1.114256 1.083776 2.633116
v 1.006063 0.340569 -2.308307
v 1.006063 0.744721 -2.271078
v 0.000000 0.340569 -2.308307
v 0.000000 0.744721 -2.271078
v 0.000000 0.340569 2.685907
v 0.000000 1.154231 2.643361
v 1.106366 0.340569 -1.200694
v 1.114256 0.918908 -0.966296
v 0.000000 1.069138 -1.158147
v 0.000000 0.340569 -1.200694
v 0.787267 1.495270 0.173675
v 0.787267 1.495270 0.909588
v 0.000000 1.527180 0.909588
v 0.000000 1.527180 0.173675
v -1.106366 0.340569 2.685907
v -1.114256 1.083776 2.633116
v -1.006063 0.340569 -2.308307
v -1.006063 0.744721 -2.271078
v -1.106366 0.340569 -1.200694
v -1.114256 0.918908 -0.966296
v -0.787267 1.495270 0.173675
v -0.787267 1.495270 0.909588
vn -0.0000 0.0917 -0.9958
vn 0.9999 -0.0136 -0.0000
vn -0.0000 -1.0000 -0.0000
vn -0.0000 0.0709 0.9975
vn 0.0396 0.9769 0.2101
vn 0.1564 0.9772 -0.1434
vn 0.9959 0.0083 -0.0902
vn 0.0405 0.9992 -0.0000
vn 0.1897 0.8971 -0.3991
vn 0.8318 0.5546 -0.0254
vn -0.9999 -0.0136 -0.0000
vn -0.0636 0.9734 0.2203
vn -0.0000 0.9600 -0.2799
vn -0.9959 0.0083 -0.0902
vn -0.0405 0.9992 -0.0000
vn -0.1897 0.8971 -0.3991
vn -0.8318 0.5546 -0.0254
vn 0.9999 -0.0106 0.0005
vn 0.0125 0.0522 0.9986
vn 0.0636 0.9734 0.2203
vn 0.9961 0.0210 -0.0854
vn 0.0383 0.9449 -0.3250
vn 0.8698 0.4935 -0.0000
vn -0.9999 -0.0106 0.0005
vn -0.0125 0.0522 0.9986
vn -0.0396 0.9769 0.2101
vn -0.1564 0.9772 -0.1434
vn -0.9961 0.0210 -0.0854
vn -0.0383 0.9449 -0.3250
vn -0.8698 0.4935 -0.0000
vt 0.625000 0.375000
vt 0.375000 0.500000
vt 0.375000 0.375000
vt 0.625000 0.559303
vt 0.375000 0.750000
vt 0.375000 0.559303
vt 0.250000 0.750000
vt 0.250000 0.559303
vt 0.625000 0.750000
vt 0.375000 0.875000
vt 0.625000 0.875000
vt 0.625000 0.500000
vt 0.750000 0.559303
vt 0.250000 0.500000
vt 0.750000 0.500000
vt 0.750000 0.750000
s 0
f 6/1/1 3/2/1 5/3/1
f 10/4/2 1/5/2 9/6/2
f 9/6/3 7/7/3 12/8/3
f 2/9/4 7/10/4 1/5/4
f 8/11/5 14/9/5 15/11/5
f 4/12/6 11/13/6 10/4/6
f 3/2/3 12/8/3 5/14/3
f 4/12/7 9/6/7 3/2/7
f 16/13/8 14/9/8 13/4/8
f 11/13/9 13/4/9 10/4/9
f 10/4/10 14/9/10 2/9/10
f 19/2/1 6/1/1 5/3/1
f 17/5/11 22/4/11 21/6/11
f 7/7/3 21/6/3 12/8/3
f 7/10/4 18/9/4 17/5/4
f 8/11/12 24/9/12 18/9/12
f 20/12/13 11/13/13 6/15/13
f 12/8/3 19/2/3 5/14/3
f 21/6/14 20/12/14 19/2/14
f 24/9/15 16/13/15 23/4/15
f 23/4/16 11/13/16 22/4/16
f 24/9/17 22/4/17 18/9/17
f 6/1/1 4/12/1 3/2/1
f 10/4/18 2/9/18 1/5/18
f 9/6/3 1/5/3 7/7/3
f 2/9/19 8/11/19 7/10/19
f 8/11/20 2/9/20 14/9/20
f 4/12/13 6/15/13 11/13/13
f 3/2/3 9/6/3 12/8/3
f 4/12/21 10/4/21 9/6/21
f 16/13/8 15/16/8 14/9/8
f 11/13/22 16/13/22 13/4/22
f 10/4/23 13/4/23 14/9/23
f 19/2/1 20/12/1 6/1/1
f 17/5/24 18/9/24 22/4/24
f 7/7/3 17/5/3 21/6/3
f 7/10/25 8/11/25 18/9/25
f 8/11/26 15/11/26 24/9/26
f 20/12/27 22/4/27 11/13/27
f 12/8/3 21/6/3 19/2/3
f 21/6/28 22/4/28 20/12/28
f 24/9/15 15/16/15 16/13/15
f 23/4/29 16/13/29 11/13/29
f 24/9/30 23/4/30 22/4/30
